<svg xmlns="http://www.w3.org/2000/svg" xmlns:xlink="http://www.w3.org/1999/xlink" contentStyleType="text/css" data-diagram-type="CLASS" height="602px" preserveAspectRatio="none" style="width:295px;height:602px;background:#FFFFFF;" version="1.1" viewBox="0 0 295 602" width="295px" zoomAndPan="magnify"><title>Diagrama de Clases &#8212; Ejemplo Escolar</title><defs/><g><text fill="#000000" font-family="sans-serif" font-size="14" font-weight="bold" lengthAdjust="spacing" textLength="267.1609" x="10" y="24.9659">Diagrama de Clases &#8212; Ejemplo Escolar</text><!--class Estudiante--><g class="entity" data-entity="Estudiante" data-source-line="4" data-uid="ent0002" id="entity_Estudiante"><rect fill="#F1F1F1" height="143.3396" rx="2.5" ry="2.5" style="stroke:#181818;stroke-width:0.5;" width="219.4653" x="37.5805" y="52.0679"/><ellipse cx="108.1262" cy="68.0679" fill="#ADD1B2" rx="11" ry="11" style="stroke:#181818;stroke-width:1;"/><path d="M107.595,74.9898 Q105.845,74.9898 104.7044,74.2554 Q103.5794,73.5054 103.0169,72.1617 Q102.47,70.8023 102.47,69.0054 Q102.47,66.9742 103.1262,65.521 Q103.7825,64.0679 105.0637,63.2867 Q106.345,62.5054 108.22,62.5054 Q109.1106,62.5054 109.7825,62.6929 Q110.4544,62.8648 111.1419,63.2085 L110.3294,65.2242 Q109.7044,64.9117 109.1575,64.7867 Q108.6262,64.6617 108.1419,64.6617 Q106.97,64.6617 106.2669,65.1929 Q105.5637,65.7242 105.2669,66.6773 Q104.97,67.6304 104.97,68.896 Q104.97,70.9117 105.6887,71.8804 Q106.4075,72.8335 108.0012,72.8335 Q108.595,72.8335 109.22,72.6773 Q109.845,72.521 110.6731,72.146 L110.6731,74.3648 Q109.9387,74.6773 109.1419,74.8335 Q108.3606,74.9898 107.595,74.9898 Z " fill="#000000"/><text fill="#000000" font-family="sans-serif" font-size="14" lengthAdjust="spacing" textLength="69.8737" x="128.6262" y="73.4999">Estudiante</text><line style="stroke:#181818;stroke-width:0.5;" x1="38.5805" x2="256.0457" y1="84.0679" y2="84.0679"/><rect fill="none" height="6" style="stroke:#C82930;stroke-width:1;" width="6" x="45.5805" y="96.1019"/><text fill="#000000" font-family="sans-serif" font-size="14" lengthAdjust="spacing" textLength="36.9319" x="57.5805" y="103.0339">id: int</text><rect fill="none" height="6" style="stroke:#C82930;stroke-width:1;" width="6" x="45.5805" y="115.1698"/><text fill="#000000" font-family="sans-serif" font-size="14" lengthAdjust="spacing" textLength="99.2876" x="57.5805" y="122.1018">nombre: String</text><rect fill="none" height="6" style="stroke:#C82930;stroke-width:1;" width="6" x="45.5805" y="134.2377"/><text fill="#000000" font-family="sans-serif" font-size="14" lengthAdjust="spacing" textLength="109.0176" x="57.5805" y="141.1697">matricula: String</text><line style="stroke:#181818;stroke-width:0.5;" x1="38.5805" x2="256.0457" y1="149.2717" y2="149.2717"/><ellipse cx="48.5805" cy="164.3056" fill="#84BE84" rx="3" ry="3" style="stroke:#038048;stroke-width:1;"/><text fill="#000000" font-family="sans-serif" font-size="14" lengthAdjust="spacing" textLength="193.4653" x="57.5805" y="168.2376">inscribirse(curso: Curso): void</text><ellipse cx="48.5805" cy="183.3735" fill="#84BE84" rx="3" ry="3" style="stroke:#038048;stroke-width:1;"/><text fill="#000000" font-family="sans-serif" font-size="14" lengthAdjust="spacing" textLength="160.8034" x="57.5805" y="187.3055">calcularPromedio(): float</text></g><!--class Curso--><g class="entity" data-entity="Curso" data-source-line="12" data-uid="ent0003" id="entity_Curso"><rect fill="#F1F1F1" height="143.3396" rx="2.5" ry="2.5" style="stroke:#181818;stroke-width:0.5;" width="277.019" x="8.5805" y="252.0679"/><ellipse cx="123.6111" cy="268.0679" fill="#ADD1B2" rx="11" ry="11" style="stroke:#181818;stroke-width:1;"/><path d="M123.0798,274.9898 Q121.3298,274.9898 120.1892,274.2554 Q119.0642,273.5054 118.5017,272.1617 Q117.9548,270.8023 117.9548,269.0054 Q117.9548,266.9742 118.6111,265.521 Q119.2673,264.0679 120.5486,263.2867 Q121.8298,262.5054 123.7048,262.5054 Q124.5954,262.5054 125.2673,262.6929 Q125.9392,262.8648 126.6267,263.2085 L125.8142,265.2242 Q125.1892,264.9117 124.6423,264.7867 Q124.1111,264.6617 123.6267,264.6617 Q122.4548,264.6617 121.7517,265.1929 Q121.0486,265.7242 120.7517,266.6773 Q120.4548,267.6304 120.4548,268.896 Q120.4548,270.9117 121.1736,271.8804 Q121.8923,272.8335 123.4861,272.8335 Q124.0798,272.8335 124.7048,272.6773 Q125.3298,272.521 126.1579,272.146 L126.1579,274.3648 Q125.4236,274.6773 124.6267,274.8335 Q123.8454,274.9898 123.0798,274.9898 Z " fill="#000000"/><text fill="#000000" font-family="sans-serif" font-size="14" lengthAdjust="spacing" textLength="38.4579" x="144.1111" y="273.4999">Curso</text><line style="stroke:#181818;stroke-width:0.5;" x1="9.5805" x2="284.5995" y1="284.0679" y2="284.0679"/><rect fill="none" height="6" style="stroke:#C82930;stroke-width:1;" width="6" x="16.5805" y="296.1019"/><text fill="#000000" font-family="sans-serif" font-size="14" lengthAdjust="spacing" textLength="91.2797" x="28.5805" y="303.0339">codigo: String</text><rect fill="none" height="6" style="stroke:#C82930;stroke-width:1;" width="6" x="16.5805" y="315.1698"/><text fill="#000000" font-family="sans-serif" font-size="14" lengthAdjust="spacing" textLength="99.2876" x="28.5805" y="322.1018">nombre: String</text><rect fill="none" height="6" style="stroke:#C82930;stroke-width:1;" width="6" x="16.5805" y="334.2377"/><text fill="#000000" font-family="sans-serif" font-size="14" lengthAdjust="spacing" textLength="77.5597" x="28.5805" y="341.1697">creditos: int</text><line style="stroke:#181818;stroke-width:0.5;" x1="9.5805" x2="284.5995" y1="349.2717" y2="349.2717"/><ellipse cx="19.5805" cy="364.3056" fill="#84BE84" rx="3" ry="3" style="stroke:#038048;stroke-width:1;"/><text fill="#000000" font-family="sans-serif" font-size="14" lengthAdjust="spacing" textLength="251.019" x="28.5805" y="368.2376">agregarEstudiante(e: Estudiante): void</text><ellipse cx="19.5805" cy="383.3735" fill="#84BE84" rx="3" ry="3" style="stroke:#038048;stroke-width:1;"/><text fill="#000000" font-family="sans-serif" font-size="14" lengthAdjust="spacing" textLength="213.4572" x="28.5805" y="387.3055">listarInscritos(): List&lt;Estudiante&gt;</text></g><!--class Profesor--><g class="entity" data-entity="Profesor" data-source-line="20" data-uid="ent0004" id="entity_Profesor"><rect fill="#F1F1F1" height="143.3396" rx="2.5" ry="2.5" style="stroke:#181818;stroke-width:0.5;" width="279.959" x="7.0805" y="452.0679"/><ellipse cx="114.6141" cy="468.0679" fill="#ADD1B2" rx="11" ry="11" style="stroke:#181818;stroke-width:1;"/><path d="M114.0828,474.9898 Q112.3328,474.9898 111.1922,474.2554 Q110.0672,473.5054 109.5047,472.1617 Q108.9578,470.8023 108.9578,469.0054 Q108.9578,466.9742 109.6141,465.521 Q110.2703,464.0679 111.5516,463.2867 Q112.8328,462.5054 114.7078,462.5054 Q115.5985,462.5054 116.2703,462.6929 Q116.9422,462.8648 117.6297,463.2085 L116.8172,465.2242 Q116.1922,464.9117 115.6453,464.7867 Q115.1141,464.6617 114.6297,464.6617 Q113.4578,464.6617 112.7547,465.1929 Q112.0516,465.7242 111.7547,466.6773 Q111.4578,467.6304 111.4578,468.896 Q111.4578,470.9117 112.1766,471.8804 Q112.8953,472.8335 114.4891,472.8335 Q115.0828,472.8335 115.7078,472.6773 Q116.3328,472.521 117.161,472.146 L117.161,474.3648 Q116.4266,474.6773 115.6297,474.8335 Q114.8485,474.9898 114.0828,474.9898 Z " fill="#000000"/><text fill="#000000" font-family="sans-serif" font-size="14" lengthAdjust="spacing" textLength="56.3918" x="135.1141" y="473.4999">Profesor</text><line style="stroke:#181818;stroke-width:0.5;" x1="8.0805" x2="286.0395" y1="484.0679" y2="484.0679"/><rect fill="none" height="6" style="stroke:#C82930;stroke-width:1;" width="6" x="15.0805" y="496.1019"/><text fill="#000000" font-family="sans-serif" font-size="14" lengthAdjust="spacing" textLength="36.9319" x="27.0805" y="503.0339">id: int</text><rect fill="none" height="6" style="stroke:#C82930;stroke-width:1;" width="6" x="15.0805" y="515.1698"/><text fill="#000000" font-family="sans-serif" font-size="14" lengthAdjust="spacing" textLength="99.2876" x="27.0805" y="522.1018">nombre: String</text><rect fill="none" height="6" style="stroke:#C82930;stroke-width:1;" width="6" x="15.0805" y="534.2377"/><text fill="#000000" font-family="sans-serif" font-size="14" lengthAdjust="spacing" textLength="141.6095" x="27.0805" y="541.1697">departamento: String</text><line style="stroke:#181818;stroke-width:0.5;" x1="8.0805" x2="286.0395" y1="549.2717" y2="549.2717"/><ellipse cx="18.0805" cy="564.3056" fill="#84BE84" rx="3" ry="3" style="stroke:#038048;stroke-width:1;"/><text fill="#000000" font-family="sans-serif" font-size="14" lengthAdjust="spacing" textLength="179.1713" x="27.0805" y="568.2376">impartir(curso: Curso): void</text><ellipse cx="18.0805" cy="583.3735" fill="#84BE84" rx="3" ry="3" style="stroke:#038048;stroke-width:1;"/><text fill="#000000" font-family="sans-serif" font-size="14" lengthAdjust="spacing" textLength="253.959" x="27.0805" y="587.3055">calificar(e: Estudiante, nota: float): void</text></g><g class="link" data-entity-1="Estudiante" data-entity-2="Curso" data-uid="lnk5" id="link_Estudiante_Curso"><path d="M147.0805,195.2119 C147.0805,213.6479 147.0805,233.5166 147.0805,251.9512" fill="none" style="stroke:#181818;stroke-width:1;"/><text fill="#000000" font-family="sans-serif" font-size="13" lengthAdjust="spacing" textLength="83.5901" x="149.0805" y="228.9649">se inscribe en</text><text fill="#000000" font-family="sans-serif" font-size="13" lengthAdjust="spacing" textLength="12.155" x="134.0805" y="247.8482">m</text><text fill="#000000" font-family="sans-serif" font-size="13" lengthAdjust="spacing" textLength="8.034" x="138.0805" y="210.1089">n</text></g><g class="link" data-entity-1="Curso" data-entity-2="Profesor" data-uid="lnk6" id="link_Curso_Profesor"><path d="M147.0805,395.2119 C147.0805,413.6479 147.0805,433.5166 147.0805,451.9512" fill="none" style="stroke:#181818;stroke-width:1;"/><text fill="#000000" font-family="sans-serif" font-size="13" lengthAdjust="spacing" textLength="84.6821" x="149.0805" y="428.9649">impartido por</text><text fill="#000000" font-family="sans-serif" font-size="13" lengthAdjust="spacing" textLength="21.567" x="125.0805" y="447.8482">1..*</text><text fill="#000000" font-family="sans-serif" font-size="13" lengthAdjust="spacing" textLength="7.436" x="139.0805" y="410.1089">1</text></g><!--SRC=[ZP7DIWD13CVl-nHnJzNQGg-BUAaz21u4do2TIPV8p6J9p0eYWW_X4_eaPjSksuA8fydayvT_BZh5DY84V9M-G8vKC65Lk0I2EyPMqQAUO1imKuQlZq_OFLFiWi0kEmceLUKibkrRUi-O2i5R1R02zWrmAgET9EwL6dWgogaTNH7DTdt04-_I2h9JthDcMhXUipIm7PxB1bw4_PZZC0nr-gWIoRCiB7W8WgLwds36cYE74y-jdCt-1SUfjIgI9-ObsFBKeivxBQnY_fqI1Su5zNvajnu3q8EvRkRisvdDi0-KHVydawSEjM2aLEHSgJW4MF-IYG_iKC-vhsrAmQDYKxx1dTolJZMiLb37-YXa0vccqn1GgdxSzUOdRxDUNzNpNit4vWKwqUeR]--></g></svg>